<svg width="236" height="236" viewBox="0 0 236 236" fill="none" xmlns="http://www.w3.org/2000/svg">
<path d="M184.578 179.92C186.953 171.816 185.43 167.134 184.578 164.577C183.725 162.019 182.02 154.347 176.906 154.347C171.791 154.347 157.845 157.942 147.071 153.495C135.971 148.914 124.907 132.184 124.907 132.184C124.907 132.184 109.728 111.115 95.072 108.316C89.1862 107.192 85.6116 107.179 79.7281 108.316C61.6946 111.799 47.3356 123.658 47.3356 142.413C47.3356 161.168 46.4833 176.512 49.0404 184.183C51.5976 191.853 66.292 205.549 73.7611 205.493C81.2301 205.438 142.809 207.2 158.152 204.641C173.496 202.082 182.203 188.025 184.578 179.92Z" fill="#4DB6AC" stroke="#4DB6AC" stroke-width="1.70487"/>
<path d="M142.358 185.126C127.86 185.32 93.6739 185.704 91.6623 185.035C89.105 184.184 85.4222 181.626 83.0015 178.217C80.5809 174.807 80.7171 169.689 80.5806 167.986C80.4442 166.282 80.5807 162.157 80.5807 157.33V146.676C80.5807 144.968 82.1499 141.783 83.9904 140.708C86.5774 139.197 89.9575 139.861 91.6623 140.712C93.3672 141.562 101.892 155.199 116.915 167.986C126.313 175.984 136.42 180.647 142.671 183.018C143.603 183.371 143.354 185.113 142.358 185.126Z" fill="white" stroke="#4DB6AC" stroke-width="1.70487"/>
<circle cx="114.678" cy="67.4" r="34.9499" fill="#4DB6AC"/>
</svg>
