<svg width="25" height="24" viewBox="0 0 25 24" fill="none" xmlns="http://www.w3.org/2000/svg">
<path d="M17.5784 0.553589C16.2132 0.713227 14.9577 1.38784 14.0623 2.44283C13.6255 2.93126 13.2968 3.50851 13.0983 4.13591C12.8998 4.76331 12.836 5.42638 12.9114 6.08073C13.5977 6.06691 14.2724 5.89823 14.8862 5.58701C15.4999 5.27579 16.0373 4.82987 16.4591 4.28178C16.8833 3.76816 17.2011 3.17337 17.3934 2.53286C17.5857 1.89235 17.6486 1.21922 17.5784 0.553589Z" fill="black"/>
<path d="M22.4555 8.26028C21.9317 7.56859 21.2644 7.00149 20.5006 6.59887C19.7368 6.19625 18.8951 5.96789 18.0347 5.92987C15.9599 5.92987 15.0811 6.91621 13.6399 6.91621C12.1535 6.91621 11.024 5.93331 9.22928 5.93331C8.25194 5.98293 7.30127 6.2728 6.45954 6.77783C5.61782 7.28286 4.91039 7.98783 4.39847 8.83174C2.72458 11.4067 3.01147 16.2493 5.72336 20.3752C6.69359 21.8507 7.99023 23.5102 9.68446 23.5251C11.1934 23.5399 11.6181 22.565 13.6614 22.5547C15.7046 22.5444 16.0931 23.5376 17.5976 23.5216C19.2918 23.5091 20.6608 21.6701 21.631 20.1946C22.2166 19.317 22.717 18.3843 23.1253 17.4093C22.225 17.0785 21.4383 16.4914 20.86 15.7187C20.2817 14.946 19.9363 14.0207 19.8656 13.0541C19.7948 12.0874 20.0016 11.1207 20.4611 10.2702C20.9206 9.41975 21.6132 8.72177 22.4555 8.26028Z" fill="black"/>
</svg>
