<svg width="25" height="27" viewBox="0 0 25 27" fill="none" xmlns="http://www.w3.org/2000/svg">
<path d="M0.5 20.9997C0.5 22.4142 1.0619 23.7707 2.0621 24.7709C3.06229 25.7711 4.41885 26.333 5.83333 26.333H19.1667C20.5812 26.333 21.9377 25.7711 22.9379 24.7709C23.9381 23.7707 24.5 22.4142 24.5 20.9997V10.9997H0.5V20.9997ZM17.8333 14.333C18.187 14.333 18.5261 14.4735 18.7761 14.7235C19.0262 14.9736 19.1667 15.3127 19.1667 15.6663C19.1667 16.02 19.0262 16.3591 18.7761 16.6091C18.5261 16.8592 18.187 16.9997 17.8333 16.9997C17.4797 16.9997 17.1406 16.8592 16.8905 16.6091C16.6405 16.3591 16.5 16.02 16.5 15.6663C16.5 15.3127 16.6405 14.9736 16.8905 14.7235C17.1406 14.4735 17.4797 14.333 17.8333 14.333ZM17.8333 19.6663C18.187 19.6663 18.5261 19.8068 18.7761 20.0569C19.0262 20.3069 19.1667 20.6461 19.1667 20.9997C19.1667 21.3533 19.0262 21.6924 18.7761 21.9425C18.5261 22.1925 18.187 22.333 17.8333 22.333C17.4797 22.333 17.1406 22.1925 16.8905 21.9425C16.6405 21.6924 16.5 21.3533 16.5 20.9997C16.5 20.6461 16.6405 20.3069 16.8905 20.0569C17.1406 19.8068 17.4797 19.6663 17.8333 19.6663ZM12.5 14.333C12.8536 14.333 13.1928 14.4735 13.4428 14.7235C13.6929 14.9736 13.8333 15.3127 13.8333 15.6663C13.8333 16.02 13.6929 16.3591 13.4428 16.6091C13.1928 16.8592 12.8536 16.9997 12.5 16.9997C12.1464 16.9997 11.8072 16.8592 11.5572 16.6091C11.3071 16.3591 11.1667 16.02 11.1667 15.6663C11.1667 15.3127 11.3071 14.9736 11.5572 14.7235C11.8072 14.4735 12.1464 14.333 12.5 14.333ZM12.5 19.6663C12.8536 19.6663 13.1928 19.8068 13.4428 20.0569C13.6929 20.3069 13.8333 20.6461 13.8333 20.9997C13.8333 21.3533 13.6929 21.6924 13.4428 21.9425C13.1928 22.1925 12.8536 22.333 12.5 22.333C12.1464 22.333 11.8072 22.1925 11.5572 21.9425C11.3071 21.6924 11.1667 21.3533 11.1667 20.9997C11.1667 20.6461 11.3071 20.3069 11.5572 20.0569C11.8072 19.8068 12.1464 19.6663 12.5 19.6663ZM7.16667 14.333C7.52029 14.333 7.85943 14.4735 8.10948 14.7235C8.35952 14.9736 8.5 15.3127 8.5 15.6663C8.5 16.02 8.35952 16.3591 8.10948 16.6091C7.85943 16.8592 7.52029 16.9997 7.16667 16.9997C6.81305 16.9997 6.47391 16.8592 6.22386 16.6091C5.97381 16.3591 5.83333 16.02 5.83333 15.6663C5.83333 15.3127 5.97381 14.9736 6.22386 14.7235C6.47391 14.4735 6.81305 14.333 7.16667 14.333ZM7.16667 19.6663C7.52029 19.6663 7.85943 19.8068 8.10948 20.0569C8.35952 20.3069 8.5 20.6461 8.5 20.9997C8.5 21.3533 8.35952 21.6924 8.10948 21.9425C7.85943 22.1925 7.52029 22.333 7.16667 22.333C6.81305 22.333 6.47391 22.1925 6.22386 21.9425C5.97381 21.6924 5.83333 21.3533 5.83333 20.9997C5.83333 20.6461 5.97381 20.3069 6.22386 20.0569C6.47391 19.8068 6.81305 19.6663 7.16667 19.6663ZM20.1667 3.43967V1.33301C20.1667 1.06779 20.0613 0.813437 19.8738 0.625901C19.6862 0.438365 19.4319 0.333008 19.1667 0.333008C18.9015 0.333008 18.6471 0.438365 18.4596 0.625901C18.272 0.813437 18.1667 1.06779 18.1667 1.33301V3.33301H8.16667V1.33301C8.16667 1.06779 8.06131 0.813437 7.87377 0.625901C7.68624 0.438365 7.43188 0.333008 7.16667 0.333008C6.90145 0.333008 6.6471 0.438365 6.45956 0.625901C6.27202 0.813437 6.16667 1.06779 6.16667 1.33301V3.33301H5.83333C4.41885 3.33301 3.06229 3.89491 2.0621 4.8951C1.0619 5.8953 0.5 7.25185 0.5 8.66634V8.99967H24.5V8.66634C24.4972 7.42744 24.0632 6.22816 23.2724 5.27442C22.4817 4.32067 21.3836 3.67197 20.1667 3.43967Z" fill="black"/>
</svg>
