<svg width="25" height="25" viewBox="0 0 25 25" fill="none" xmlns="http://www.w3.org/2000/svg">
<g clip-path="url(#clip0_119_3240)">
<path d="M12.5 24.5C19.1257 24.5 24.5 19.1257 24.5 12.5C24.5 5.87427 19.1257 0.5 12.5 0.5C5.87427 0.5 0.5 5.87427 0.5 12.5C0.5 19.1257 5.87427 24.5 12.5 24.5ZM11.6428 5.64287C11.6428 5.17142 12.0286 4.7857 12.5 4.7857C12.9714 4.7857 13.3572 5.17142 13.3572 5.64287V12.0886L17.3215 15.26C17.69 15.5557 17.75 16.0957 17.4543 16.4643C17.3743 16.5648 17.2726 16.6459 17.1568 16.7015C17.041 16.7572 16.9142 16.786 16.7857 16.7857C16.5971 16.7857 16.4085 16.7257 16.25 16.5971L11.9643 13.1686C11.7629 13.0057 11.6429 12.7615 11.6429 12.5V5.64287H11.6428Z" fill="white"/>
</g>
<defs>
<clipPath id="clip0_119_3240">
<rect width="24" height="24" fill="white" transform="translate(0.5 0.5)"/>
</clipPath>
</defs>
</svg>
