<svg width="24" height="25" viewBox="0 0 24 25" fill="none" xmlns="http://www.w3.org/2000/svg">
<path d="M10 6.02246H14C14 5.49203 13.7893 4.98332 13.4142 4.60825C13.0391 4.23317 12.5304 4.02246 12 4.02246C11.4696 4.02246 10.9609 4.23317 10.5858 4.60825C10.2107 4.98332 10 5.49203 10 6.02246ZM8 6.02246C8 4.9616 8.42143 3.94418 9.17157 3.19403C9.92172 2.44389 10.9391 2.02246 12 2.02246C13.0609 2.02246 14.0783 2.44389 14.8284 3.19403C15.5786 3.94418 16 4.9616 16 6.02246H21C21.2652 6.02246 21.5196 6.12782 21.7071 6.31535C21.8946 6.50289 22 6.75724 22 7.02246C22 7.28768 21.8946 7.54203 21.7071 7.72957C21.5196 7.9171 21.2652 8.02246 21 8.02246H20.118L19.232 18.3625C19.1468 19.3609 18.69 20.291 17.9519 20.9688C17.2137 21.6466 16.2481 22.0226 15.246 22.0225H8.754C7.75191 22.0226 6.78628 21.6466 6.04815 20.9688C5.31002 20.291 4.85318 19.3609 4.768 18.3625L3.882 8.02246H3C2.73478 8.02246 2.48043 7.9171 2.29289 7.72957C2.10536 7.54203 2 7.28768 2 7.02246C2 6.75724 2.10536 6.50289 2.29289 6.31535C2.48043 6.12782 2.73478 6.02246 3 6.02246H8ZM15 12.0225C15 11.7572 14.8946 11.5029 14.7071 11.3154C14.5196 11.1278 14.2652 11.0225 14 11.0225C13.7348 11.0225 13.4804 11.1278 13.2929 11.3154C13.1054 11.5029 13 11.7572 13 12.0225V16.0225C13 16.2877 13.1054 16.542 13.2929 16.7296C13.4804 16.9171 13.7348 17.0225 14 17.0225C14.2652 17.0225 14.5196 16.9171 14.7071 16.7296C14.8946 16.542 15 16.2877 15 16.0225V12.0225ZM10 11.0225C9.73478 11.0225 9.48043 11.1278 9.29289 11.3154C9.10536 11.5029 9 11.7572 9 12.0225V16.0225C9 16.2877 9.10536 16.542 9.29289 16.7296C9.48043 16.9171 9.73478 17.0225 10 17.0225C10.2652 17.0225 10.5196 16.9171 10.7071 16.7296C10.8946 16.542 11 16.2877 11 16.0225V12.0225C11 11.7572 10.8946 11.5029 10.7071 11.3154C10.5196 11.1278 10.2652 11.0225 10 11.0225Z" fill="#797979"/>
</svg>
