<svg width="24" height="25" viewBox="0 0 24 25" fill="none" xmlns="http://www.w3.org/2000/svg">
<path d="M20.259 17.1803C21.0598 16.6172 21.6602 15.8136 21.9733 14.8861C22.2864 13.9586 22.2957 12.9555 22 12.0223C21.3935 10.1073 19.535 9.05778 17.5265 9.05978H16.366C16.0891 7.98008 15.5708 6.97729 14.8502 6.12689C14.1296 5.27649 13.2255 4.60066 12.2059 4.15027C11.1863 3.69989 10.0778 3.48669 8.96386 3.52673C7.84993 3.56677 6.75961 3.859 5.77497 4.38143C4.79034 4.90386 3.93706 5.64286 3.27938 6.5428C2.6217 7.44274 2.17677 8.48016 1.97807 9.57695C1.77937 10.6737 1.83209 11.8013 2.13226 12.8748C2.43243 13.9483 2.97223 14.9396 3.71101 15.7743M12.004 20.5223L12 11.5223M15.182 17.3403L12 20.5223L8.81801 17.3403" stroke="#797979" stroke-width="2" stroke-linecap="round" stroke-linejoin="round"/>
</svg>
