<svg width="17" height="17" viewBox="0 0 17 17" fill="none" xmlns="http://www.w3.org/2000/svg">
<path d="M14.1104 14.6924H2.11035C1.83702 14.6924 1.61035 14.4657 1.61035 14.1924C1.61035 13.919 1.83702 13.6924 2.11035 13.6924H14.1104C14.3837 13.6924 14.6104 13.919 14.6104 14.1924C14.6104 14.4657 14.3837 14.6924 14.1104 14.6924Z" fill="white"/>
<path d="M12.7904 2.34582C11.497 1.05249 10.2304 1.01915 8.90369 2.34582L8.09703 3.15249C8.03036 3.21915 8.00369 3.32582 8.03036 3.41915C8.53703 5.18582 9.95036 6.59915 11.717 7.10582C11.7437 7.11249 11.7704 7.11915 11.797 7.11915C11.8704 7.11915 11.937 7.09249 11.9904 7.03916L12.7904 6.23249C13.4504 5.57915 13.7704 4.94582 13.7704 4.30582C13.777 3.64582 13.457 3.00582 12.7904 2.34582Z" fill="white"/>
<path d="M10.517 7.71193C10.3237 7.61859 10.137 7.52526 9.95703 7.41859C9.81036 7.33193 9.67036 7.23859 9.53036 7.13859C9.41703 7.06526 9.28369 6.95859 9.15703 6.85193C9.14369 6.84526 9.09703 6.80526 9.04369 6.75193C8.82369 6.56526 8.57703 6.32526 8.35703 6.05859C8.33703 6.04526 8.30369 5.99859 8.25703 5.93859C8.19036 5.85859 8.07703 5.72526 7.97703 5.57193C7.89703 5.47193 7.80369 5.32526 7.71703 5.17859C7.61036 4.99859 7.51703 4.81859 7.42369 4.63193C7.30132 4.3697 6.95715 4.2918 6.75253 4.49642L3.00369 8.24526C2.91703 8.33193 2.83703 8.49859 2.81703 8.61193L2.45703 11.1653C2.39036 11.6186 2.51703 12.0453 2.79703 12.3319C3.03703 12.5653 3.37036 12.6919 3.73036 12.6919C3.81036 12.6919 3.89036 12.6853 3.97036 12.6719L6.53036 12.3119C6.65036 12.2919 6.81703 12.2119 6.89703 12.1253L10.6521 8.37023C10.8526 8.16971 10.7772 7.82468 10.517 7.71193Z" fill="white"/>
</svg>
