<svg width="25" height="24" viewBox="0 0 25 24" fill="none" xmlns="http://www.w3.org/2000/svg">
<path d="M7.06708 4H17.0671C18.4904 4 19.6006 4.35572 20.3522 5.05371C21.0971 5.74547 21.5671 6.84538 21.5671 8.5V15.5C21.5671 17.1546 21.0971 18.2545 20.3522 18.9463C19.6006 19.6443 18.4904 20 17.0671 20H7.06708C5.64372 20 4.5336 19.6443 3.78192 18.9463C3.03702 18.2545 2.56708 17.1546 2.56708 15.5V8.5C2.56708 6.84538 3.03702 5.74547 3.78192 5.05371C4.5336 4.35572 5.64372 4 7.06708 4ZM18.0339 8.21484C17.6058 7.66607 16.8129 7.59326 16.2849 8.01953L13.155 10.5195L13.154 10.5205C12.8787 10.7413 12.4829 10.8672 12.0622 10.8672C11.6415 10.8672 11.2457 10.7413 10.9704 10.5205L10.9694 10.5195L7.83954 8.01953C7.2946 7.57941 6.51309 7.69235 6.08856 8.21484L6.0827 8.22266C5.66696 8.75534 5.7487 9.54528 6.28192 9.97852L6.28485 9.98047L9.41083 12.4766V12.4775C10.1628 13.0907 11.1295 13.3799 12.0671 13.3799C13.0066 13.3799 13.9604 13.0897 14.7194 12.4805L17.8493 9.98047L17.8522 9.97852C18.3819 9.54816 18.4672 8.76297 18.0446 8.22852H18.0456C18.0438 8.22621 18.0415 8.22397 18.0397 8.22168C18.038 8.21952 18.0366 8.217 18.0349 8.21484H18.0339Z" fill="#4DB6AC" stroke="#4DB6AC"/>
</svg>
