<svg width="22" height="22" viewBox="0 0 22 22" fill="none" xmlns="http://www.w3.org/2000/svg">
<path fill-rule="evenodd" clip-rule="evenodd" d="M16.4947 10.9993C17.1805 10.9992 17.8524 10.8067 18.4343 10.4438C19.0161 10.0809 19.4846 9.56206 19.7863 8.94628C20.0881 8.3305 20.2112 7.64243 20.1415 6.96023C20.0718 6.27803 19.8123 5.62903 19.3923 5.08695C18.9723 4.54487 18.4087 4.13143 17.7655 3.8936C17.1223 3.65577 16.4253 3.60307 15.7537 3.74149C15.082 3.87992 14.4627 4.20391 13.9659 4.67668C13.4692 5.14945 13.115 5.75204 12.9436 6.41602H2.74473C2.50162 6.41602 2.26846 6.51259 2.09655 6.6845C1.92464 6.85641 1.82807 7.08957 1.82807 7.33268C1.82807 7.5758 1.92464 7.80896 2.09655 7.98086C2.26846 8.15277 2.50162 8.24935 2.74473 8.24935H12.9436C13.3506 9.8306 14.7861 10.9993 16.4947 10.9993ZM14.6614 7.33268C14.6614 7.81891 14.8546 8.28523 15.1984 8.62905C15.5422 8.97286 16.0085 9.16602 16.4947 9.16602C16.981 9.16602 17.4473 8.97286 17.7911 8.62905C18.1349 8.28523 18.3281 7.81891 18.3281 7.33268C18.3281 6.84645 18.1349 6.38014 17.7911 6.03632C17.4473 5.6925 16.981 5.49935 16.4947 5.49935C16.0085 5.49935 15.5422 5.6925 15.1984 6.03632C14.8546 6.38014 14.6614 6.84645 14.6614 7.33268ZM1.82807 14.666C1.82718 13.7729 2.15228 12.9102 2.74233 12.2399C3.33238 11.5695 4.14681 11.1375 5.03277 11.0249C5.91873 10.9124 6.8153 11.1271 7.5542 11.6287C8.29309 12.1304 8.82351 12.8844 9.0459 13.7493H19.2447C19.4878 13.7493 19.721 13.8459 19.8929 14.0178C20.0648 14.1897 20.1614 14.4229 20.1614 14.666C20.1614 14.9091 20.0648 15.1423 19.8929 15.3142C19.721 15.4861 19.4878 15.5827 19.2447 15.5827H9.0459C8.82065 16.4448 8.28932 17.1955 7.55112 17.6945C6.81292 18.1935 5.91832 18.4068 5.03436 18.2946C4.15041 18.1823 3.33753 17.7522 2.74751 17.0844C2.15749 16.4167 1.83067 15.5571 1.82807 14.666ZM7.32807 14.666C7.32807 14.1798 7.13491 13.7135 6.79109 13.3697C6.44728 13.0258 5.98096 12.8327 5.49473 12.8327C5.0085 12.8327 4.54219 13.0258 4.19837 13.3697C3.85455 13.7135 3.6614 14.1798 3.6614 14.666C3.6614 15.1522 3.85455 15.6186 4.19837 15.9624C4.54219 16.3062 5.0085 16.4993 5.49473 16.4993C5.98096 16.4993 6.44728 16.3062 6.79109 15.9624C7.13491 15.6186 7.32807 15.1522 7.32807 14.666Z" fill="#FF6F61"/>
</svg>
