<svg width="25" height="24" viewBox="0 0 25 24" fill="none" xmlns="http://www.w3.org/2000/svg">
<path d="M23.25 17.84V8.88001C23.2499 8.78203 23.2303 8.68504 23.1925 8.59466C23.1546 8.50428 23.0992 8.42231 23.0294 8.35349C22.9597 8.28467 22.877 8.23036 22.7861 8.19372C22.6952 8.15708 22.598 8.13882 22.5 8.14001H13.71C13.4702 8.13966 13.2354 8.07076 13.0334 7.94142C12.8315 7.81209 12.6707 7.62771 12.57 7.41001L12.12 6.42001L11.51 5.10001C11.4805 5.03795 11.4471 4.97783 11.41 4.92001C11.175 4.48904 10.8279 4.12957 10.4055 3.87961C9.98302 3.62966 9.50087 3.4985 9.01 3.50001H4.5C4.13879 3.49975 3.78107 3.5707 3.44731 3.70881C3.11355 3.84692 2.81028 4.04947 2.55487 4.30488C2.29946 4.5603 2.0969 4.86356 1.9588 5.19732C1.82069 5.53109 1.74974 5.8888 1.75 6.25001V17.84C1.74974 18.2012 1.82069 18.5589 1.9588 18.8927C2.0969 19.2265 2.29946 19.5297 2.55487 19.7851C2.81028 20.0406 3.11355 20.2431 3.44731 20.3812C3.78107 20.5193 4.13879 20.5903 4.5 20.59H20.5C20.8612 20.5903 21.2189 20.5193 21.5527 20.3812C21.8865 20.2431 22.1897 20.0406 22.4451 19.7851C22.7005 19.5297 22.9031 19.2265 23.0412 18.8927C23.1793 18.5589 23.2503 18.2012 23.25 17.84Z" fill="#4DB6AC"/>
<path d="M13.48 6.99992C13.502 7.04196 13.5351 7.0772 13.5756 7.10187C13.6161 7.12654 13.6626 7.13969 13.71 7.13992H22.5C22.748 7.13739 22.9937 7.18857 23.22 7.28992C23.1284 6.63339 22.8028 6.03204 22.303 5.59656C21.8032 5.16108 21.1629 4.92079 20.5 4.91992H12.53L13.03 5.99992L13.48 6.99992Z" fill="#4DB6AC"/>
</svg>
