<svg width="24" height="24" viewBox="0 0 24 24" fill="none" xmlns="http://www.w3.org/2000/svg">
<path d="M23.5447 14.7954C23.2359 16.4052 22.5747 17.894 21.5603 19.2612C20.5459 20.6284 19.2336 21.7309 17.6238 22.5688C16.0359 23.3848 14.2492 23.7925 12.2644 23.7925C10.0371 23.7924 8.019 23.2966 6.21069 22.3042C5.50429 21.903 4.85746 21.4404 4.26831 20.9185L6.68823 16.9556C7.22577 17.6731 7.88201 18.2548 8.65894 18.6987C9.73954 19.3162 10.997 19.6245 12.4304 19.6245C14.1944 19.6245 15.6388 19.1619 16.7634 18.2358C17.8881 17.2876 18.6273 15.9752 18.9802 14.2993H11.0408V10.7593H23.5447V14.7954Z" fill="#4285F4"/>
<path d="M12.2317 0.206787C14.834 0.206787 17.0943 0.846638 19.0129 2.12573C20.9315 3.3827 22.2549 5.15757 22.9827 7.45093H17.6565C17.1273 6.48092 16.3998 5.74225 15.4739 5.23511C14.5476 4.72788 13.4667 4.47437 12.2317 4.47437C10.8645 4.47437 9.65153 4.78273 8.59302 5.40015C8.10696 5.68368 7.66991 6.02358 7.28149 6.4187L4.58716 2.82593C5.08877 2.41691 5.63027 2.051 6.21118 1.72827C8.01953 0.713871 10.0264 0.206789 12.2317 0.206787Z" fill="#E50000"/>
<path d="M8.48853 5.4624C7.47989 6.07639 6.68728 6.93763 6.11157 8.04639C5.51615 9.19312 5.21902 10.5166 5.21899 12.0161C5.21899 13.5598 5.51616 14.9055 6.11157 16.0522C6.22771 16.2679 6.3521 16.4744 6.48462 16.6714L2.36743 18.73C2.23205 18.5265 2.10136 18.3177 1.97681 18.103C0.962398 16.3167 0.455322 14.2876 0.455322 12.0161C0.455354 9.74469 0.962376 7.71548 1.97681 5.9292C3.01331 4.12089 4.4249 2.7204 6.21118 1.72803C6.41139 1.61571 6.6145 1.51052 6.81958 1.41064L8.48853 5.4624Z" fill="#FBBC05"/>
<path d="M5.22046 12.0615C5.22622 13.5862 5.52257 14.9163 6.11206 16.0518C6.72956 17.1985 7.57929 18.0807 8.65991 18.6982C9.74044 19.3156 10.9971 19.625 12.4304 19.625C13.9838 19.625 15.2889 19.2649 16.3464 18.5469L19.3113 21.5117C18.7907 21.9011 18.2284 22.2546 17.6238 22.5693C16.0361 23.3851 14.2499 23.7929 12.2654 23.793C10.0381 23.793 8.01999 23.297 6.21167 22.3047C4.42544 21.2903 3.01379 19.8897 1.97729 18.1035C1.45781 17.1888 1.07158 16.2099 0.818115 15.168L5.22046 12.0615Z" fill="#34A853"/>
</svg>
