<svg width="232" height="177" viewBox="0 0 232 177" fill="none" xmlns="http://www.w3.org/2000/svg">
<path d="M156.496 106.732C157.905 101.924 157.001 99.1471 156.496 97.6301C155.99 96.113 154.979 91.5619 151.945 91.5619C148.91 91.5619 140.637 93.6943 134.246 91.0562C127.661 88.3386 121.098 78.4141 121.098 78.4141C121.098 78.4141 112.093 65.9155 103.399 64.255C99.9075 63.5882 97.787 63.581 94.2968 64.255C83.599 66.3211 75.0809 73.3564 75.0809 84.4823C75.0809 95.6082 74.5753 104.71 76.0923 109.261C77.6092 113.811 86.3263 121.936 90.757 121.903C95.1878 121.87 131.717 122.915 140.82 121.397C149.922 119.879 155.087 111.54 156.496 106.732Z" fill="white" stroke="white" stroke-width="1.01136"/>
<path d="M131.45 109.821C122.85 109.936 102.57 110.163 101.377 109.766C99.8597 109.261 97.6749 107.744 96.2389 105.722C94.8029 103.699 94.8837 100.663 94.8028 99.6526C94.7219 98.6422 94.8028 96.1951 94.8028 93.3316V87.0115C94.8028 85.9979 95.7337 84.1086 96.8256 83.4708C98.3602 82.5743 100.365 82.9684 101.377 83.473C102.388 83.9775 107.445 92.0674 116.357 99.6526C121.932 104.397 127.928 107.163 131.636 108.57C132.189 108.779 132.041 109.813 131.45 109.821Z" fill="#4DB6AC" stroke="white" stroke-width="1.01136"/>
<circle cx="115.03" cy="39.983" r="20.733" fill="white"/>
<path d="M6.39583 171.646H14.75V176.583H0V150.375H6.39583V171.646Z" fill="white"/>
<path d="M32.0832 176.854C29.6248 176.854 27.3644 176.286 25.3123 175.146C23.255 173.995 21.6248 172.391 20.4165 170.333C19.2082 168.281 18.604 165.969 18.604 163.396C18.604 160.844 19.2082 158.542 20.4165 156.5C21.6248 154.458 23.255 152.87 25.3123 151.729C27.3644 150.578 29.6248 150 32.0832 150C34.5415 150 36.7967 150.578 38.854 151.729C40.9061 152.87 42.5259 154.458 43.7082 156.5C44.8853 158.542 45.479 160.844 45.479 163.396C45.479 165.969 44.88 168.281 43.6873 170.333C42.4894 172.391 40.8748 173.995 38.8332 175.146C36.7915 176.286 34.5415 176.854 32.0832 176.854ZM32.0832 171.021C34.1769 171.021 35.854 170.328 37.104 168.937C38.3644 167.536 38.9998 165.687 38.9998 163.396C38.9998 161.094 38.3644 159.25 37.104 157.875C35.854 156.49 34.1769 155.792 32.0832 155.792C29.9686 155.792 28.2811 156.479 27.0207 157.854C25.7707 159.219 25.1457 161.062 25.1457 163.396C25.1457 165.719 25.7707 167.573 27.0207 168.958C28.2811 170.333 29.9686 171.021 32.0832 171.021Z" fill="white"/>
<path d="M74.332 176.583H67.957L57.2904 160.417V176.583H50.8945V150.375H57.2904L67.957 166.625V150.375H74.332V176.583Z" fill="white"/>
<path d="M87.2274 155.5V160.792H95.769V165.729H87.2274V171.458H96.894V176.583H80.8315V150.375H96.894V155.5H87.2274Z" fill="white"/>
<path d="M109.289 171.646H117.643V176.583H102.893V150.375H109.289V171.646Z" fill="white"/>
<path d="M128.961 150.375V176.583H122.565V150.375H128.961Z" fill="white"/>
<path d="M158.881 176.583H152.506L141.84 160.417V176.583H135.444V150.375H141.84L152.506 166.625V150.375H158.881V176.583Z" fill="white"/>
<path d="M171.777 155.5V160.792H180.319V165.729H171.777V171.458H181.444V176.583H165.381V150.375H181.444V155.5H171.777Z" fill="white"/>
<path d="M196.922 176.854C195.005 176.854 193.286 176.542 191.776 175.917C190.26 175.292 189.047 174.37 188.13 173.146C187.224 171.927 186.744 170.458 186.692 168.75H193.484C193.593 169.724 193.932 170.469 194.505 170.979C195.073 171.479 195.817 171.729 196.734 171.729C197.677 171.729 198.422 171.516 198.963 171.083C199.515 170.641 199.797 170.036 199.797 169.271C199.797 168.62 199.578 168.083 199.151 167.667C198.718 167.24 198.182 166.891 197.547 166.625C196.906 166.349 196.005 166.036 194.838 165.687C193.14 165.161 191.76 164.641 190.692 164.125C189.619 163.599 188.698 162.828 187.922 161.812C187.156 160.786 186.776 159.453 186.776 157.812C186.776 155.37 187.656 153.458 189.422 152.083C191.182 150.698 193.489 150 196.338 150C199.213 150 201.531 150.698 203.297 152.083C205.073 153.458 206.026 155.375 206.151 157.833H199.234C199.192 156.99 198.88 156.328 198.297 155.854C197.724 155.37 196.994 155.125 196.109 155.125C195.328 155.125 194.703 155.333 194.234 155.75C193.76 156.156 193.526 156.74 193.526 157.5C193.526 158.349 193.922 159.01 194.713 159.479C195.515 159.953 196.765 160.469 198.463 161.021C200.156 161.594 201.531 162.141 202.588 162.667C203.64 163.182 204.552 163.937 205.317 164.937C206.093 165.937 206.484 167.219 206.484 168.771C206.484 170.271 206.099 171.635 205.338 172.854C204.588 174.078 203.489 175.052 202.047 175.771C200.599 176.495 198.89 176.854 196.922 176.854Z" fill="white"/>
<path d="M221.745 176.854C219.829 176.854 218.11 176.542 216.599 175.917C215.084 175.292 213.87 174.37 212.954 173.146C212.047 171.927 211.568 170.458 211.516 168.75H218.308C218.417 169.724 218.756 170.469 219.329 170.979C219.896 171.479 220.641 171.729 221.558 171.729C222.5 171.729 223.245 171.516 223.787 171.083C224.339 170.641 224.62 170.036 224.62 169.271C224.62 168.62 224.402 168.083 223.974 167.667C223.542 167.24 223.006 166.891 222.37 166.625C221.73 166.349 220.829 166.036 219.662 165.687C217.964 165.161 216.584 164.641 215.516 164.125C214.443 163.599 213.521 162.828 212.745 161.812C211.98 160.786 211.599 159.453 211.599 157.812C211.599 155.37 212.48 153.458 214.245 152.083C216.006 150.698 218.313 150 221.162 150C224.037 150 226.355 150.698 228.12 152.083C229.896 153.458 230.849 155.375 230.974 157.833H224.058C224.016 156.99 223.704 156.328 223.12 155.854C222.547 155.37 221.818 155.125 220.933 155.125C220.152 155.125 219.527 155.333 219.058 155.75C218.584 156.156 218.349 156.74 218.349 157.5C218.349 158.349 218.745 159.01 219.537 159.479C220.339 159.953 221.589 160.469 223.287 161.021C224.98 161.594 226.355 162.141 227.412 162.667C228.464 163.182 229.375 163.937 230.141 164.937C230.917 165.937 231.308 167.219 231.308 168.771C231.308 170.271 230.922 171.635 230.162 172.854C229.412 174.078 228.313 175.052 226.87 175.771C225.422 176.495 223.714 176.854 221.745 176.854Z" fill="white"/>
</svg>
