<svg width="21" height="21" viewBox="0 0 21 21" fill="none" xmlns="http://www.w3.org/2000/svg">
<path d="M16.5479 8.1635C16.2272 8.1635 15.9722 8.41847 15.9722 8.73924V10.0388C15.9722 12.9504 13.6034 15.3191 10.6918 15.3191C7.78022 15.3191 5.41146 12.9504 5.41146 10.0388V8.73102C5.41146 8.41025 5.15649 8.15527 4.83572 8.15527C4.51495 8.15527 4.25998 8.41025 4.25998 8.73102V10.0305C4.25998 13.3781 6.83436 16.1334 10.1161 16.4295V18.1814C10.1161 18.5022 10.3711 18.7571 10.6918 18.7571C11.0126 18.7571 11.2676 18.5022 11.2676 18.1814V16.4295C14.5411 16.1416 17.1237 13.3781 17.1237 10.0305V8.73102C17.1155 8.41847 16.8605 8.1635 16.5479 8.1635Z" fill="white"/>
<path d="M10.6888 2.30762C8.68193 2.30762 7.05341 3.93614 7.05341 5.94301V10.1541C7.05341 12.161 8.68193 13.7895 10.6888 13.7895C12.6957 13.7895 14.3242 12.161 14.3242 10.1541V5.94301C14.3242 3.93614 12.6957 2.30762 10.6888 2.30762ZM11.7663 8.0239C11.7087 8.23775 11.5195 8.37757 11.3057 8.37757C11.2645 8.37757 11.2234 8.36935 11.1823 8.36112C10.8615 8.27065 10.5243 8.27065 10.2035 8.36112C9.94034 8.43515 9.68536 8.27887 9.61957 8.0239C9.54554 7.76893 9.70181 7.50574 9.95678 7.43994C10.4421 7.30834 10.952 7.30834 11.4373 7.43994C11.684 7.50574 11.8321 7.76893 11.7663 8.0239ZM12.2022 6.42828C12.1282 6.62567 11.9472 6.74082 11.7498 6.74082C11.6922 6.74082 11.6429 6.7326 11.5853 6.71615C11.0096 6.5023 10.368 6.5023 9.79229 6.71615C9.54554 6.80662 9.2659 6.67502 9.17542 6.42828C9.08495 6.18153 9.21655 5.90189 9.46329 5.81964C10.2529 5.53177 11.1247 5.53177 11.9143 5.81964C12.1611 5.91011 12.2926 6.18153 12.2022 6.42828Z" fill="white"/>
</svg>
