<svg width="24" height="24" viewBox="0 0 24 24" fill="none" xmlns="http://www.w3.org/2000/svg">
<path d="M7.11083 20.9719C5.65301 20.9766 4.19051 20.9813 2.7327 20.9766C2.33895 20.9766 2.08582 20.6298 2.15145 20.2266C2.3952 18.6751 2.62489 17.1235 2.86864 15.5766C3.08895 14.1844 3.32801 12.7923 3.54832 11.3954C3.7077 10.3876 3.84832 9.37976 4.0077 8.37194C4.24207 6.886 4.48583 5.40007 4.72489 3.91413C4.86083 3.06101 4.98739 2.20788 5.11864 1.35476C5.20301 0.796943 5.64364 0.417255 6.21551 0.417255C8.68114 0.417255 11.1515 0.398505 13.6171 0.42663C14.9624 0.440693 16.2983 0.609443 17.5218 1.23288C18.7921 1.87038 19.5655 2.90632 19.8186 4.31257C19.9358 4.96882 19.8936 5.62507 19.7671 6.28132C19.2421 6.01413 18.6889 5.84069 18.1171 5.72819C17.4046 5.58757 16.6733 5.55007 15.9468 5.54069C14.114 5.52194 12.2765 5.52663 10.4436 5.54069C10.0546 5.54538 9.7077 5.70475 9.55301 6.10319C9.4827 6.286 9.45926 6.49225 9.43114 6.69382C9.30457 7.46257 9.1827 8.236 9.06083 9.00944C8.96708 9.60475 8.86395 10.2001 8.77489 10.7954C8.66239 11.5501 8.56395 12.3094 8.41864 13.0594C8.37176 13.3079 8.26864 13.561 8.34364 13.8282C8.28739 13.9969 8.23583 14.1657 8.2077 14.3438C8.07645 15.211 7.94051 16.0782 7.80457 16.9454C7.64051 17.9954 7.48583 19.0501 7.3077 20.1001C7.25145 20.3907 7.2702 20.7001 7.11083 20.9719Z" fill="#002987"/>
<path d="M7.1107 20.9723C7.27008 20.7051 7.25133 20.391 7.2982 20.1004C7.47633 19.0504 7.63101 18.0004 7.79508 16.9457C7.93101 16.0785 8.06695 15.2113 8.1982 14.3441C8.22633 14.166 8.27789 13.9973 8.33414 13.8285C8.58726 13.4348 8.93883 13.2613 9.41695 13.266C10.6123 13.266 11.8076 13.327 12.9982 13.177C14.0623 13.0457 15.0795 12.7738 16.0263 12.2676C17.4841 11.4848 18.4779 10.2895 19.1013 8.77539C19.3966 8.05352 19.631 7.3082 19.7295 6.53008C19.7388 6.51133 19.7435 6.49258 19.7529 6.47852C19.7623 6.43164 19.7716 6.38477 19.781 6.33789C20.8966 6.92852 21.492 7.87539 21.6513 9.11289C21.7826 10.1301 21.6279 11.1191 21.3748 12.1035C21.1732 12.8863 20.8638 13.6223 20.4232 14.2973C19.706 15.4035 18.7076 16.1723 17.4654 16.6129C16.8185 16.8426 16.1529 16.9738 15.4732 17.0535C14.906 17.1191 14.3388 17.1191 13.7716 17.1238C13.1998 17.1238 12.8341 17.4379 12.7545 18.0004C12.581 19.1863 12.4076 20.3723 12.2013 21.5582C12.131 21.9613 12.0748 22.3691 12.0045 22.7676C11.9154 23.2551 11.5685 23.5457 11.0763 23.5457C9.88101 23.5457 8.6857 23.5457 7.49039 23.5457C7.0357 23.5457 6.81539 23.2832 6.89039 22.8426C6.97945 22.2988 7.06851 21.7598 7.15758 21.216C7.17164 21.127 7.19508 21.0379 7.1107 20.9723Z" fill="#0085CC"/>
<path d="M19.7859 6.3278C19.7765 6.37467 19.7671 6.42155 19.7578 6.46842C19.7484 6.48717 19.7437 6.50592 19.7343 6.51998C19.6359 7.29811 19.4015 8.04342 19.1062 8.7653C18.4828 10.2794 17.489 11.4747 16.0312 12.2575C15.0843 12.7637 14.0625 13.0356 13.0031 13.1669C11.8125 13.3122 10.6171 13.2559 9.42183 13.2559C8.9437 13.2559 8.59214 13.4247 8.33902 13.8184C8.26402 13.5559 8.36714 13.2981 8.41402 13.0497C8.55464 12.2997 8.65777 11.5403 8.77027 10.7856C8.85933 10.1903 8.96245 9.59498 9.0562 8.99967C9.17808 8.22623 9.29995 7.45748 9.42652 6.68405C9.45933 6.48717 9.47808 6.28092 9.54839 6.09342C9.70308 5.69498 10.05 5.53092 10.439 5.53092C12.2718 5.51686 14.1093 5.51217 15.9421 5.53092C16.6687 5.5403 17.3953 5.5778 18.1125 5.71842C18.6843 5.83092 19.2421 6.00436 19.7625 6.27155C19.7718 6.29967 19.7812 6.31373 19.7859 6.3278Z" fill="#00186A"/>
</svg>
