<svg width="24" height="24" viewBox="0 0 24 24" fill="none" xmlns="http://www.w3.org/2000/svg">
<path d="M20.182 4.18227C18.8413 4.03953 17.5217 3.74119 16.25 3.29327C15.083 2.88085 13.9636 2.34445 12.911 1.69327C12.6364 1.52661 12.3213 1.43848 12 1.43848C11.6787 1.43848 11.3636 1.52661 11.089 1.69327L11.088 1.69427C10.0356 2.34492 8.91657 2.88098 7.75 3.29327C6.47891 3.741 5.16004 4.03934 3.82 4.18227C3.38954 4.22611 2.99066 4.42813 2.70062 4.74921C2.41057 5.07029 2.25 5.48759 2.25 5.92027V11.1153C2.25073 13.0323 2.76378 14.9143 3.73605 16.5664C4.70832 18.2186 6.10447 19.5809 7.78 20.5123L11.15 22.3853C11.4095 22.5312 11.7023 22.6079 12 22.6079C12.2977 22.6079 12.5905 22.5312 12.85 22.3853L16.22 20.5123C17.8955 19.5809 19.2917 18.2186 20.264 16.5664C21.2362 14.9143 21.7493 13.0323 21.75 11.1153V5.92127C21.7505 5.48855 21.5905 5.07103 21.3008 4.74957C21.0111 4.42812 20.6124 4.22661 20.182 4.18227ZM15.979 10.1843L12.229 14.1843C12.0509 14.3743 11.8055 14.4872 11.5453 14.499C11.2851 14.5108 11.0306 14.4205 10.836 14.2473L8.586 12.2473C8.48287 12.1615 8.39805 12.0559 8.33656 11.9368C8.27508 11.8176 8.23819 11.6872 8.2281 11.5535C8.21801 11.4198 8.23493 11.2854 8.27783 11.1583C8.32074 11.0313 8.38876 10.9142 8.47786 10.8139C8.56696 10.7137 8.6753 10.6324 8.79645 10.5749C8.9176 10.5174 9.04909 10.4848 9.18307 10.4792C9.31706 10.4735 9.45082 10.4949 9.57639 10.542C9.70196 10.589 9.81677 10.6609 9.914 10.7533L11.437 12.1063L14.521 8.81627C14.6146 8.71673 14.7275 8.63735 14.8529 8.58301C14.9782 8.52867 15.1134 8.50052 15.25 8.50027C15.4451 8.50017 15.6359 8.55714 15.7991 8.66415C15.9622 8.77116 16.0904 8.92355 16.168 9.10254C16.2456 9.28154 16.2692 9.47932 16.2357 9.67152C16.2023 9.86373 16.1124 10.042 15.979 10.1843Z" fill="black"/>
</svg>
