<svg width="21" height="24" viewBox="0 0 21 24" fill="none" xmlns="http://www.w3.org/2000/svg">
<path d="M9.86026 11.5609C11.4485 11.5609 12.8238 10.9912 13.9475 9.86729C15.0712 8.74361 15.6409 7.36867 15.6409 5.78027C15.6409 4.19234 15.0712 2.81727 13.9473 1.69317C12.8234 0.569623 11.4483 0 9.86026 0C8.27182 0 6.89684 0.569623 5.77315 1.69335C4.64947 2.81708 4.07961 4.1922 4.07961 5.78027C4.07961 7.36867 4.64942 8.74379 5.77334 9.86752C6.89726 10.9911 8.27238 11.5609 9.86026 11.5609ZM19.9748 18.4548C19.9423 17.9871 19.8768 17.4769 19.7803 16.9383C19.6829 16.3955 19.5575 15.8825 19.4073 15.4136C19.2522 14.9289 19.0413 14.4503 18.7806 13.9916C18.5099 13.5155 18.1921 13.1009 17.8354 12.7598C17.4624 12.403 17.0057 12.1161 16.4776 11.9067C15.9514 11.6986 15.3682 11.5931 14.7444 11.5931C14.4994 11.5931 14.2625 11.6936 13.8049 11.9916C13.4796 12.2034 13.1534 12.4137 12.8262 12.6225C12.5118 12.8228 12.0859 13.0105 11.5598 13.1804C11.0466 13.3465 10.5255 13.4308 10.0111 13.4308C9.4968 13.4308 8.97583 13.3465 8.46203 13.1804C7.93657 13.0107 7.51066 12.823 7.1966 12.6227C6.83238 12.39 6.50285 12.1776 6.21701 11.9913C5.75998 11.6934 5.52284 11.5929 5.27788 11.5929C4.65383 11.5929 4.07085 11.6985 3.54477 11.907C3.01706 12.1159 2.56021 12.4028 2.18686 12.76C1.83037 13.1013 1.51233 13.5157 1.24205 13.9916C0.981517 14.4502 0.77058 14.9287 0.615284 15.4138C0.465285 15.8827 0.339895 16.3955 0.242489 16.9383C0.145973 17.4762 0.0804424 17.9866 0.048005 18.4553C0.0157374 18.927 -0.000256447 19.3997 5.20625e-05 19.8725C5.20625e-05 21.1254 0.398301 22.1395 1.18364 22.8875C1.95928 23.6257 2.98556 24.0001 4.2336 24.0001H15.7897C17.0378 24.0001 18.0637 23.6258 18.8395 22.8876C19.625 22.1401 20.0233 21.1257 20.0233 19.8723C20.0231 19.3888 20.0068 18.9118 19.9748 18.4548Z" fill="white"/>
</svg>
