<svg width="24" height="24" viewBox="0 0 24 24" fill="none" xmlns="http://www.w3.org/2000/svg">
<path d="M3.33624 4.36816C1.91897 4.36816 0.751144 5.53599 0.751144 6.95326V17.0442C0.751144 18.4643 1.91614 19.6321 3.33624 19.6321H14.3966C15.8139 19.6321 16.9817 18.4643 16.9817 17.047V6.95609C16.9817 5.53599 15.8167 4.36816 14.3966 4.36816H3.33624ZM3.75292 7.50032C3.95115 7.50107 4.14106 7.58015 4.28123 7.72033C4.42141 7.8605 4.50049 8.05041 4.50123 8.24864V11.9959C4.50161 12.0945 4.48255 12.1923 4.44514 12.2836C4.40774 12.3748 4.35272 12.4579 4.28323 12.5279C4.21374 12.5979 4.13115 12.6535 4.04015 12.6916C3.94916 12.7297 3.85156 12.7495 3.75292 12.7499C3.65403 12.7499 3.55613 12.7304 3.46481 12.6924C3.37349 12.6545 3.29056 12.5989 3.22077 12.5289C3.15098 12.4588 3.09571 12.3757 3.05813 12.2842C3.02055 12.1928 3.00139 12.0948 3.00176 11.9959V8.24864C3.00251 8.04992 3.08198 7.85958 3.22277 7.71933C3.36356 7.57907 3.55419 7.50032 3.75292 7.50032ZM21.4659 6.73783C21.287 6.7493 21.1123 6.79754 20.9529 6.87956L18.484 8.20612V16.1797L21.0407 17.1576C21.6757 17.3985 22.3361 17.0952 22.6904 16.7041C23.0506 16.3134 23.25 15.8012 23.2488 15.2698V8.73051C23.2498 8.19139 23.0485 7.67152 22.6848 7.27356C22.4944 7.05156 22.2476 6.88508 21.9705 6.79169C21.8075 6.74034 21.6362 6.72109 21.4659 6.735V6.73783Z" fill="#797979"/>
</svg>
