<svg width="18" height="21" viewBox="0 0 18 21" fill="none" xmlns="http://www.w3.org/2000/svg">
<path fill-rule="evenodd" clip-rule="evenodd" d="M9 2.0127C4.0125 2.0127 0 6.0252 0 11.0127C0 16.0002 4.0125 20.0127 9 20.0127C13.9875 20.0127 18 16.0002 18 11.0127C18 6.0252 13.9875 2.0127 9 2.0127ZM10.9875 14.0502C11.2551 14.0471 11.5108 13.9394 11.7 13.7502C11.8892 13.561 11.9969 13.3053 12 13.0377C12 12.7752 11.8875 12.5127 11.7 12.3252L9.975 10.6377V7.0377C9.975 6.4752 9.525 6.0252 8.9625 6.0252C8.4 6.0252 7.95 6.4752 7.95 7.0377V11.0502C7.95 11.3127 8.0625 11.5752 8.25 11.7627L10.2375 13.7502C10.4625 13.9377 10.725 14.0502 10.9875 14.0502Z" fill="black"/>
<path d="M16.0125 4.03791C15.825 4.03791 15.6375 3.96291 15.45 3.85041L12.45 1.86291C12.1125 1.67541 11.925 1.33791 11.925 0.96291C11.925 0.58791 12.15 0.25041 12.525 0.10041C12.9 -0.0495897 13.275 -0.0120896 13.575 0.21291L16.575 2.20041C16.95 2.46291 17.1 2.91291 16.9875 3.32541C16.8375 3.73791 16.425 4.03791 16.0125 4.03791ZM1.9875 4.03791C1.5375 4.03791 1.1625 3.73791 1.05 3.32541C0.937501 2.91291 1.0875 2.46291 1.4625 2.20041L4.4625 0.21291C4.7625 -0.0120896 5.175 -0.0870897 5.5125 0.10041C5.85 0.25041 6.075 0.58791 6.1125 0.96291C6.1125 1.33791 5.925 1.71291 5.5875 1.86291L2.5875 3.85041C2.4 3.96291 2.2125 4.03791 1.9875 4.03791Z" fill="black"/>
</svg>
