<svg width="24" height="24" viewBox="0 0 24 24" fill="none" xmlns="http://www.w3.org/2000/svg">
<path fill-rule="evenodd" clip-rule="evenodd" d="M1.73662 19.0694C2.05824 18.7588 2.33553 18.4053 2.56069 18.019H16.76C16.9851 18.4053 17.2624 18.7588 17.5841 19.0694C17.6543 19.1389 17.7022 19.2277 17.7218 19.3245C17.7414 19.4214 17.7317 19.5218 17.6941 19.6132C17.6565 19.7045 17.5926 19.7826 17.5105 19.8375C17.4284 19.8925 17.3318 19.9218 17.233 19.9217H2.08772C1.98891 19.9218 1.89231 19.8925 1.81018 19.8376C1.72806 19.7826 1.66412 19.7045 1.62649 19.6132C1.58886 19.5218 1.57924 19.4213 1.59885 19.3245C1.61846 19.2276 1.66642 19.1388 1.73662 19.0693V19.0694ZM9.66033 3.57789C10.059 3.57781 10.457 3.61053 10.8502 3.67572V3.44355C10.8502 3.12796 10.7249 2.8253 10.5017 2.60215C10.2786 2.37899 9.97591 2.25363 9.66033 2.25363C9.34474 2.25363 9.04208 2.37899 8.81893 2.60215C8.59577 2.8253 8.47041 3.12796 8.47041 3.44355V3.67572C8.86369 3.61053 9.26168 3.57781 9.66033 3.57789ZM7.32403 20.6717C7.36309 21.2647 7.62622 21.8207 8.06007 22.2269C8.49391 22.6332 9.066 22.8592 9.66033 22.8592C10.2547 22.8592 10.8267 22.6332 11.2606 22.2269C11.6944 21.8207 11.9576 21.2647 11.9966 20.6717H7.32403ZM2.24086 8.86586C2.21405 8.96143 2.15037 9.04244 2.06384 9.09106C1.9773 9.13968 1.87499 9.15193 1.77942 9.12512C1.68385 9.09832 1.60284 9.03464 1.55422 8.9481C1.5056 8.86157 1.49335 8.75926 1.52016 8.66369C1.72498 7.92859 2.01925 7.22141 2.39639 6.55802C3.06278 5.38849 4.00167 4.39714 5.13328 3.66822C5.17465 3.64168 5.22084 3.62354 5.26922 3.61485C5.3176 3.60616 5.36722 3.60708 5.41524 3.61756C5.46326 3.62805 5.50875 3.64789 5.5491 3.67595C5.58945 3.70401 5.62389 3.73975 5.65043 3.78112C5.67697 3.82249 5.69511 3.86868 5.7038 3.91706C5.71249 3.96544 5.71157 4.01505 5.70109 4.06307C5.6906 4.11109 5.67076 4.15658 5.6427 4.19694C5.61464 4.23729 5.5789 4.27172 5.53753 4.29827C4.50682 4.96135 3.6522 5.8644 3.04687 6.93006C2.70003 7.53997 2.42937 8.19014 2.24095 8.866L2.24086 8.86586ZM0.960937 7.62236C1.19888 6.97553 1.50412 6.35549 1.87162 5.77244C2.52724 4.73326 3.38481 3.83629 4.3935 3.13469C4.4339 3.10659 4.46836 3.07082 4.49493 3.0294C4.5215 2.98799 4.53966 2.94174 4.54836 2.89331C4.55706 2.84488 4.55613 2.79521 4.54563 2.74714C4.53514 2.69906 4.51527 2.65353 4.48718 2.61313C4.45908 2.57274 4.42331 2.53827 4.38189 2.5117C4.34048 2.48513 4.29423 2.46697 4.2458 2.45828C4.19737 2.44958 4.1477 2.4505 4.09963 2.461C4.05156 2.4715 4.00602 2.49136 3.96562 2.51945C2.87528 3.27951 1.94811 4.25014 1.23877 5.37414C0.842978 6.00143 0.514189 6.66856 0.257812 7.36455C0.240884 7.41071 0.233215 7.45976 0.235243 7.5089C0.237271 7.55803 0.248956 7.60628 0.269632 7.6509C0.290307 7.69551 0.319568 7.73562 0.355744 7.76892C0.391919 7.80223 0.4343 7.82809 0.480468 7.84502C0.526636 7.86194 0.575686 7.86961 0.624818 7.86758C0.67395 7.86556 0.722201 7.85387 0.766816 7.8332C0.811432 7.81252 0.851538 7.78326 0.884846 7.74708C0.918153 7.71091 0.944009 7.66853 0.960937 7.62236ZM17.6369 2.94283C16.7811 2.94283 15.9446 3.19658 15.2332 3.67199C14.5217 4.14739 13.9671 4.82311 13.6396 5.61369C13.3122 6.40426 13.2265 7.27419 13.3934 8.11346C13.5604 8.95273 13.9724 9.72365 14.5775 10.3287C15.1826 10.9338 15.9535 11.3459 16.7928 11.5128C17.6321 11.6798 18.502 11.5941 19.2926 11.2666C20.0831 10.9391 20.7589 10.3846 21.2343 9.6731C21.7097 8.9616 21.9634 8.1251 21.9634 7.26939C21.9634 6.7012 21.8515 6.13857 21.6341 5.61363C21.4166 5.08869 21.0979 4.61173 20.6961 4.20997C20.2943 3.8082 19.8174 3.48952 19.2924 3.2721C18.7675 3.05468 18.2048 2.9428 17.6366 2.94283H17.6369ZM18.2515 7.43814L18.0119 7.57647V7.8542C18.012 7.94136 17.9817 8.02581 17.9262 8.09304C17.8708 8.16028 17.7936 8.20611 17.7081 8.22264C17.6225 8.23918 17.5338 8.22539 17.4573 8.18366C17.3808 8.14192 17.3212 8.07484 17.2888 7.99394L15.7131 8.90369C15.6272 8.95342 15.5251 8.967 15.4293 8.94145C15.3334 8.9159 15.2516 8.85331 15.2019 8.76744C15.1521 8.68158 15.1386 8.57948 15.1641 8.48361C15.1897 8.38773 15.2522 8.30593 15.3381 8.2562L17.2619 7.1455V3.90114C17.2619 3.80168 17.3014 3.7063 17.3717 3.63598C17.4421 3.56565 17.5375 3.52614 17.6369 3.52614C17.7364 3.52614 17.8317 3.56565 17.9021 3.63598C17.9724 3.7063 18.0119 3.80168 18.0119 3.90114V6.74378C18.0979 6.73172 18.1853 6.74991 18.2593 6.79524C18.3333 6.84057 18.3893 6.91021 18.4176 6.99225C18.4459 7.0743 18.4448 7.16363 18.4145 7.24495C18.3842 7.32628 18.3266 7.39454 18.2515 7.43805V7.43814ZM17.6366 1.14063C16.4245 1.14067 15.2396 1.50016 14.2317 2.17363C13.2239 2.84709 12.4384 3.80429 11.9745 4.92419C11.5107 6.04408 11.3894 7.27636 11.6259 8.46521C11.8624 9.65406 12.4461 10.7461 13.3033 11.6032C14.1604 12.4603 15.2525 13.044 16.4413 13.2804C17.6302 13.5169 18.8625 13.3955 19.9823 12.9316C21.1022 12.4677 22.0594 11.6822 22.7328 10.6743C23.4062 9.66642 23.7656 8.48149 23.7656 7.26934C23.7656 6.46449 23.6071 5.66751 23.2991 4.92393C22.991 4.18034 22.5396 3.50471 21.9705 2.9356C21.4013 2.36649 20.7257 1.91506 19.9821 1.60708C19.2385 1.2991 18.4415 1.14059 17.6366 1.14063ZM17.6366 12.3459C16.6326 12.3459 15.6511 12.0482 14.8162 11.4904C13.9814 10.9325 13.3307 10.1397 12.9465 9.21206C12.5623 8.28444 12.4617 7.26371 12.6576 6.27896C12.8535 5.2942 13.337 4.38964 14.047 3.67967C14.7569 2.9697 15.6615 2.48621 16.6462 2.29033C17.631 2.09445 18.6517 2.19498 19.5793 2.57921C20.507 2.96344 21.2998 3.61412 21.8576 4.44896C22.4155 5.28379 22.7132 6.26529 22.7132 7.26934C22.7132 7.93601 22.5819 8.59614 22.3268 9.21206C22.0716 9.82798 21.6977 10.3876 21.2263 10.859C20.7549 11.3304 20.1953 11.7044 19.5793 11.9595C18.9634 12.2146 18.3033 12.3459 17.6366 12.3459ZM2.88923 17.269C2.98413 16.9682 3.04449 16.6575 3.06914 16.343H16.2516C16.2762 16.6575 16.3366 16.9682 16.4315 17.269H2.88923ZM3.08484 15.593V11.7786C3.08484 5.96777 7.58391 3.55764 11.3191 4.54464C10.9155 5.48192 10.7254 6.49721 10.7625 7.51703C10.7995 8.53684 11.0629 9.53565 11.5335 10.4411C12.0041 11.3466 12.6701 12.1362 13.4834 12.7526C14.2967 13.369 15.2369 13.7969 16.2359 14.0052V15.593H3.08484Z" fill="black"/>
</svg>
