<svg width="21" height="21" viewBox="0 0 21 21" fill="none" xmlns="http://www.w3.org/2000/svg">
<path fill-rule="evenodd" clip-rule="evenodd" d="M17.5785 0.523292C17.9863 0.362951 18.432 0.325127 18.861 0.414462C19.29 0.503796 19.6835 0.716403 19.9934 1.0262C20.3033 1.336 20.516 1.72951 20.6054 2.15845C20.6949 2.5874 20.6572 3.03313 20.4969 3.44095L14.2782 19.2566C14.1045 19.7008 13.7942 20.0781 13.392 20.3343C12.9898 20.5905 12.5165 20.7123 12.0406 20.682C11.5647 20.6517 11.1108 20.4709 10.7443 20.1657C10.3779 19.8606 10.1179 19.4469 10.0019 18.9843L8.49094 12.9997C8.45762 12.8678 8.38906 12.7474 8.29259 12.6515C8.19611 12.5555 8.07537 12.4876 7.94327 12.455L2.08319 11.0063C1.61949 10.8918 1.20425 10.6327 0.897534 10.2666C0.590816 9.90047 0.408525 9.44626 0.377031 8.96968C0.345537 8.49309 0.466473 8.01884 0.722345 7.61553C0.978217 7.21222 1.35576 6.90077 1.80035 6.72623L17.5785 0.523292ZM14.4838 5.4936C14.6253 5.35693 14.8148 5.28131 15.0115 5.28302C15.2082 5.28473 15.3964 5.36364 15.5355 5.50273C15.6746 5.64183 15.7535 5.83 15.7552 6.02671C15.7569 6.22342 15.6813 6.41293 15.5446 6.55443L11.0432 11.0558C10.9017 11.1925 10.7122 11.2681 10.5155 11.2664C10.3188 11.2647 10.1306 11.1858 9.99155 11.0467C9.85245 10.9076 9.77355 10.7194 9.77184 10.5227C9.77013 10.326 9.84575 10.1365 9.98241 9.995L14.4838 5.4936Z" fill="black"/>
</svg>
