<svg width="24" height="24" viewBox="0 0 24 24" fill="none" xmlns="http://www.w3.org/2000/svg">
<path fill-rule="evenodd" clip-rule="evenodd" d="M22.908 10.0319L21.1037 9.70378C20.1197 9.45778 19.5454 8.06338 20.1197 7.2433L21.1037 5.7673C21.2676 5.52106 21.2676 5.11114 21.0216 4.94698L19.1352 3.06058C18.8892 2.81458 18.5611 2.7325 18.233 2.9785L16.8386 3.9625C15.9367 4.4545 14.5426 3.88066 14.3784 2.89642L14.0503 1.17418C13.968 0.846098 13.6402 0.600098 13.3942 0.600098H10.6877C10.3596 0.600098 10.1136 0.846098 10.0318 1.17418L9.70369 2.89642C9.45769 3.88042 8.06329 4.45474 7.24321 3.96274L5.76721 2.97874C5.52097 2.7325 5.11105 2.81458 4.94689 3.06058L3.06049 4.94698C2.81449 5.1109 2.73241 5.52106 2.97841 5.76706L3.96241 7.24306C4.45441 8.06338 3.88057 9.45754 2.89633 9.70378L1.17409 10.0319C0.846006 10.1137 0.600006 10.3599 0.600006 10.6878V13.3945C0.600006 13.6405 0.846006 13.9688 1.17409 14.0507L2.89633 14.3787C3.88033 14.5427 4.45465 15.9368 3.96265 16.8392L2.97865 18.2336C2.73241 18.5615 2.81449 18.8895 3.06049 19.1355L4.94689 21.0219C5.11081 21.2679 5.52097 21.2679 5.76697 21.104L7.24297 20.12C8.06329 19.5457 9.45745 20.12 9.70369 21.104L10.0318 22.9083C10.1138 23.2364 10.3598 23.4003 10.6877 23.4003H13.3944C13.6404 23.4003 13.9687 23.2364 14.0506 22.9083L14.3786 21.104C14.5426 20.12 15.9367 19.5457 16.8391 20.12L18.2335 21.104C18.5614 21.2679 18.8894 21.2679 19.1354 21.0219L21.0218 19.1355C21.2678 18.8895 21.2678 18.5615 21.1039 18.2334L20.1199 16.839C19.5456 15.9371 20.1199 14.5429 21.1039 14.3787L22.9082 14.0507C23.2363 13.9686 23.4002 13.6405 23.4002 13.3945V10.6878C23.4002 10.3597 23.2361 10.1137 22.908 10.0319ZM12.0005 6.91546C14.8709 6.91546 17.1674 9.21178 17.1674 12.0001C17.1703 12.6795 17.0385 13.3527 16.7798 13.9809C16.5212 14.609 16.1406 15.1798 15.6602 15.6602C15.1798 16.1405 14.609 16.521 13.9808 16.7796C13.3526 17.0383 12.6794 17.1699 12 17.1671C9.21193 17.1671 6.91561 14.8707 6.91561 11.9999C6.91561 9.21178 9.21217 6.91546 12.0005 6.91546Z" fill="#797979"/>
</svg>
