<svg width="24" height="25" viewBox="0 0 24 25" fill="none" xmlns="http://www.w3.org/2000/svg">
<path d="M17.5 3.27246C17.9256 3.27245 18.3453 3.37121 18.7262 3.56096C19.1072 3.75071 19.4388 4.02627 19.6952 4.36597C19.9515 4.70566 20.1255 5.10022 20.2035 5.51857C20.2815 5.93693 20.2613 6.36768 20.1446 6.77691C20.0278 7.18615 19.8177 7.5627 19.5307 7.87694C19.2437 8.19118 18.8877 8.43453 18.4907 8.58783C18.0937 8.74113 17.6666 8.80021 17.2429 8.76041C16.8192 8.72061 16.4105 8.58302 16.049 8.35846C16.0202 8.37731 15.9905 8.39467 15.96 8.41046L9.247 11.8905C9.25087 11.9784 9.25087 12.0665 9.247 12.1545L9.26 12.1625L15.676 15.9645C16.1556 15.5393 16.7686 15.295 17.4091 15.2737C18.0497 15.2525 18.6776 15.4556 19.1843 15.8481C19.691 16.2405 20.0447 16.7976 20.1843 17.4231C20.3239 18.0486 20.2407 18.7033 19.9489 19.2739C19.6572 19.8446 19.1753 20.2955 18.5865 20.5486C17.9977 20.8017 17.339 20.8413 16.7241 20.6604C16.1093 20.4795 15.5769 20.0895 15.219 19.5578C14.8612 19.0262 14.7002 18.3862 14.764 17.7485L8.42 13.9905C8.03247 14.3687 7.54187 14.6242 7.00975 14.7247C6.47762 14.8253 5.92765 14.7665 5.42881 14.5557C4.92997 14.3449 4.50446 13.9916 4.20564 13.5399C3.90683 13.0883 3.74802 12.5585 3.74912 12.0169C3.75022 11.4754 3.91119 10.9462 4.21184 10.4958C4.51249 10.0454 4.93944 9.69377 5.43914 9.48503C5.93884 9.2763 6.48904 9.21975 7.02075 9.32247C7.55246 9.42519 8.04201 9.68262 8.428 10.0625L14.843 6.73646C14.7334 6.32881 14.7191 5.90141 14.8013 5.48735C14.8834 5.0733 15.0597 4.68371 15.3167 4.34877C15.5736 4.01383 15.9041 3.74253 16.2828 3.55588C16.6614 3.36924 17.0779 3.27226 17.5 3.27246Z" fill="#797979"/>
</svg>
