<svg width="22" height="24" viewBox="0 0 22 24" fill="none" xmlns="http://www.w3.org/2000/svg">
<path fill-rule="evenodd" clip-rule="evenodd" d="M10.8278 20.1776V21.3736C10.8278 22.3328 10.3498 23.1608 9.51908 23.6404C9.11942 23.8711 8.67336 23.9998 8.21089 24C7.748 24.0003 7.30208 23.8713 6.90214 23.6404L1.58389 20.5699C0.753126 20.0903 0.275188 19.2624 0.275188 18.3031V2.61741C0.275188 1.17408 1.44931 0 2.89259 0H14.6053C16.0487 0 17.2229 1.17398 17.2229 2.61741V5.92392C17.2229 6.39825 16.8378 6.78338 16.3634 6.78338C15.889 6.78338 15.5042 6.3983 15.5042 5.92392V2.61741C15.5042 2.1218 15.1009 1.71853 14.6053 1.71853H4.34192L9.51908 4.70808C10.3495 5.18761 10.8278 6.01542 10.8278 6.97434V18.4589H14.6053C15.1009 18.4589 15.5042 18.0558 15.5042 17.5602V14.6616C15.5042 14.187 15.8887 13.8022 16.3634 13.8022C16.838 13.8022 17.2229 14.187 17.2229 14.6616V17.5602C17.2229 19.0036 16.0487 20.1776 14.6053 20.1776H10.8278ZM18.791 10.948L17.8446 11.8945C17.509 12.2301 17.5091 12.7741 17.8446 13.1097C17.9243 13.1896 18.0191 13.2529 18.1233 13.296C18.2276 13.3392 18.3394 13.3613 18.4522 13.3612C18.5651 13.3614 18.677 13.3393 18.7813 13.2961C18.8856 13.253 18.9804 13.1896 19.0601 13.1097L21.4732 10.6962C21.8087 10.3607 21.8087 9.81694 21.4732 9.48141L19.0601 7.06828C18.7245 6.73266 18.1804 6.7328 17.8446 7.06823C17.5092 7.40348 17.5093 7.94775 17.8446 8.28309L18.791 9.22931H12.4507C11.9759 9.22931 11.5915 9.61406 11.5915 10.0888C11.5915 10.5636 11.976 10.9481 12.4507 10.9481H18.791V10.948Z" fill="black"/>
</svg>
