<svg width="25" height="24" viewBox="0 0 25 24" fill="none" xmlns="http://www.w3.org/2000/svg">
<path d="M7.0672 2.5H17.0672C19.553 2.5 21.5672 4.50857 21.5672 6.98047V13.96C21.5672 16.4319 19.553 18.4404 17.0672 18.4404H15.5672C15.0986 18.4404 14.6521 18.6647 14.369 19.0371L14.368 19.0391L12.868 21.0293L12.867 21.0303C12.6176 21.3627 12.323 21.4902 12.0672 21.4902C11.8114 21.4902 11.5168 21.3627 11.2674 21.0303L11.2664 21.0293L9.76642 19.0391L9.76251 19.0342C9.6197 18.8495 9.42068 18.7065 9.22833 18.6104C9.03678 18.5146 8.80189 18.4404 8.5672 18.4404H7.0672C4.58138 18.4404 2.5672 16.4319 2.5672 13.96V6.98047C2.5672 4.50857 4.58138 2.5 7.0672 2.5ZM7.0672 11.75C6.38106 11.75 5.8172 12.3139 5.8172 13C5.8172 13.6861 6.38106 14.25 7.0672 14.25H13.0672C13.7533 14.25 14.3172 13.6861 14.3172 13C14.3172 12.3139 13.7533 11.75 13.0672 11.75H7.0672ZM7.0672 6.75C6.38106 6.75 5.8172 7.31386 5.8172 8C5.8172 8.68614 6.38106 9.25 7.0672 9.25H17.0672C17.7533 9.25 18.3172 8.68614 18.3172 8C18.3172 7.31386 17.7533 6.75 17.0672 6.75H7.0672Z" fill="#4DB6AC" stroke="#4DB6AC"/>
</svg>
