<svg width="21" height="21" viewBox="0 0 21 21" fill="none" xmlns="http://www.w3.org/2000/svg">
<g clip-path="url(#clip0_70_1892)">
<path d="M3.05599 4.37744C1.87451 4.37744 0.900967 5.35098 0.900967 6.53247V14.9446C0.900967 16.1285 1.87215 17.102 3.05599 17.102H12.2763C13.4578 17.102 14.4313 16.1285 14.4313 14.947V6.53483C14.4313 5.35098 13.4601 4.37744 12.2763 4.37744H3.05599ZM3.40335 6.98852C3.5686 6.98914 3.72691 7.05506 3.84377 7.17192C3.96062 7.28877 4.02655 7.44708 4.02717 7.61234V10.7362C4.02748 10.8184 4.01159 10.8999 3.98041 10.976C3.94923 11.0521 3.90336 11.1213 3.84544 11.1797C3.78751 11.238 3.71865 11.2844 3.6428 11.3162C3.56694 11.3479 3.48558 11.3644 3.40335 11.3647C3.32092 11.3647 3.2393 11.3485 3.16317 11.3168C3.08704 11.2852 3.01791 11.2389 2.95973 11.1805C2.90155 11.1221 2.85548 11.0528 2.82415 10.9765C2.79282 10.9003 2.77685 10.8186 2.77716 10.7362V7.61234C2.77779 7.44668 2.84404 7.28801 2.9614 7.17109C3.07876 7.05417 3.23768 6.98852 3.40335 6.98852ZM18.1695 6.35288C18.0203 6.36244 17.8747 6.40266 17.7418 6.47103L15.6837 7.5769V14.2239L17.8151 15.0391C18.3444 15.24 18.8949 14.9872 19.1903 14.6611C19.4906 14.3354 19.6568 13.9084 19.6558 13.4654V8.01405C19.6566 7.56461 19.4888 7.13123 19.1856 6.79948C19.0269 6.61441 18.8212 6.47563 18.5901 6.39778C18.4543 6.35497 18.3115 6.33892 18.1695 6.35052V6.35288Z" fill="#242424"/>
</g>
<defs>
<clipPath id="clip0_70_1892">
<rect width="20.0072" height="20.0072" fill="white" transform="translate(0.27478 0.736328)"/>
</clipPath>
</defs>
</svg>
