<svg width="45" height="15" viewBox="0 0 45 15" fill="none" xmlns="http://www.w3.org/2000/svg">
<path d="M15.7754 13.8874L18.0136 0.751883H21.5924L19.3535 13.8874H15.7754ZM32.2672 1.04005C31.2402 0.667877 30.1552 0.481126 29.0629 0.488491C25.531 0.488491 23.0429 2.26784 23.0214 4.81855C23.002 6.70376 24.7981 7.75526 26.154 8.38254C27.5455 9.02592 28.0131 9.43607 28.0064 10.0104C27.9977 10.8897 26.895 11.2911 25.868 11.2911C24.437 11.2911 23.6773 11.0901 22.5029 10.6029L22.0426 10.3944L21.5408 13.3312C22.3756 13.6971 23.9198 14.0148 25.5223 14.0308C29.28 14.0308 31.7192 12.2723 31.7474 9.54865C31.7607 8.05616 30.8095 6.92021 28.746 5.98397C27.4966 5.38081 26.7315 4.97199 26.7396 4.35744C26.7396 3.81258 27.3874 3.22955 28.7869 3.22955C29.7038 3.20902 30.615 3.38022 31.462 3.73219L31.7822 3.88363L32.2672 1.04005ZM41.4614 0.751883H38.708C37.8552 0.751883 37.2167 0.985118 36.8422 1.83625L31.5497 13.8204H35.3168C35.3168 13.8204 35.9197 12.2267 36.0584 11.8769L40.5718 11.8822C40.677 12.3353 41.0005 13.8204 41.0005 13.8204H44.3449L41.4614 0.751883ZM37.0834 9.19615C37.3788 8.44019 38.5077 5.52891 38.5077 5.52891C38.4863 5.56376 38.8011 4.76893 38.9813 4.27635L39.2232 5.40764C39.2232 5.40764 39.9079 8.53938 40.0506 9.19615H37.0834ZM12.7385 0.751883L9.24683 9.67801L8.875 7.86384C8.22516 5.77288 6.19994 3.50768 3.93555 2.37373L7.12848 13.8204L10.9016 13.8164L16.5163 0.751883H12.7211" fill="white"/>
<path d="M5.83049 0.746824H0.0911437L0.0449219 1.01958C4.52948 2.10594 7.49661 4.73037 8.72863 7.8829L7.47518 1.85128C7.25879 1.02093 6.63175 0.772958 5.85529 0.744141" fill="white"/>
</svg>
